# xmcd
#
# Track frame offsets: 
#        150
#        10491
#        28856
#        50693
#        66774
#        86286
#        106681
#        121346
#        135897
#        157442
#
# Disc length: 2418 seconds
#
# Revision: 0
# Processed by: cddbd v1.5.2PL0 Copyright (c) Steve Scherf et al.
# Submitted via: ExactAudioCopy v0.95b4
#
DISCID=7f09700a
DTITLE=Vince Gill - These Days - CD 4
DYEAR=2006
DGENRE=Country
TTITLE0=All Prayed Up
TTITLE1=Cold Gray Light Of Gone (Feat.The Del McCoury Band)
TTITLE2=A River Like You (Feat. Jenny Gill)
TTITLE3=Ace Up Your Pretty Sleeve
TTITLE4=Molly Brown
TTITLE5=Girl (Feat. Rebecca Lynn Howard)
TTITLE6=Give Me The Highway (Feat. The Del McCoury Band)
TTITLE7=Sweet Augusta Darlin'
TTITLE8=Little Brother
TTITLE9=Almost Home (Duet With Guy Clark
EXTD=
EXTT0=
EXTT1=
EXTT2=
EXTT3=
EXTT4=
EXTT5=
EXTT6=
EXTT7=
EXTT8=
EXTT9=
PLAYORDER=
